<?xml version="1.0" encoding="utf-8"?>
<!-- Author: Leonine Released under the Creative Commons licence Attribution-NonCommercial-ShareAlike CC BY-NC-SA  -->
<!DOCTYPE svg PUBLIC "-//W3C//DTD SVG 1.1//EN" "http://www.w3.org/Graphics/SVG/1.1/DTD/svg11.dtd">
<svg version="1.1" id="Layer_1" xmlns="http://www.w3.org/2000/svg" xmlns:xlink="http://www.w3.org/1999/xlink" x="0px" y="0px"
	 width="612px" height="792px" viewBox="0 0 612 792" enable-background="new 0 0 612 792" xml:space="preserve">
<g>
	<path fill-rule="evenodd" clip-rule="evenodd" fill="#060404" d="M305.552,181.051c61.984,0,123.968,0.024,185.952-0.067
		c3.257-0.004,5.521,0.931,7.805,3.26c32.416,33.076,64.887,66.101,97.491,98.992c2.681,2.705,2.291,3.909-0.01,6.549
		c-49.645,56.963-99.149,114.048-148.72,171.075c-34.724,39.946-69.516,79.832-104.254,119.766
		c-11.795,13.559-23.593,27.117-35.211,40.826c-2.411,2.846-3.559,3.013-6.132,0.036c-34.941-40.419-70.039-80.704-105.077-121.041
		c-47.587-54.783-95.15-109.589-142.737-164.372c-13.644-15.707-27.295-31.407-41.057-47.011c-1.777-2.015-2.004-3.113,0.012-5.154
		c33.135-33.528,66.209-67.118,99.197-100.791c2.094-2.138,4.311-2.072,6.79-2.072C181.584,181.052,243.568,181.051,305.552,181.051
		z M305.539,192.094c-60.324,0-120.648,0.026-180.973-0.067c-3.423-0.005-5.85,0.906-8.285,3.394
		c-28.794,29.406-57.663,58.741-86.656,87.952c-2.815,2.836-2.455,4.389-0.034,7.159c31.565,36.137,63.002,72.385,94.48,108.597
		c59.458,68.398,118.937,136.778,178.326,205.237c2.462,2.839,3.61,3.086,6.238,0.043c31.582-36.562,63.326-72.982,95.024-109.444
		c59.352-68.272,118.678-136.567,178.127-204.755c2.544-2.918,2.074-4.317-0.374-6.79c-28.957-29.246-57.834-58.572-86.628-87.979
		c-2.424-2.476-4.838-3.418-8.274-3.413C426.188,192.126,365.863,192.099,305.539,192.094z"/>
	<path fill-rule="evenodd" clip-rule="evenodd" fill="#FB0000" d="M305.539,192.097c60.324,0.002,120.648,0.029,180.972-0.069
		c3.437-0.005,5.851,0.938,8.274,3.413c28.794,29.406,57.671,58.732,86.628,87.979c2.448,2.473,2.918,3.872,0.374,6.79
		c-59.449,68.188-118.775,136.482-178.127,204.755c-31.698,36.462-63.442,72.883-95.024,109.444
		c-2.628,3.043-3.776,2.796-6.238-0.043c-59.389-68.459-118.868-136.839-178.326-205.237c-31.479-36.212-62.915-72.46-94.48-108.597
		c-2.42-2.771-2.781-4.323,0.034-7.159c28.993-29.211,57.861-58.546,86.656-87.952c2.435-2.487,4.862-3.398,8.285-3.394
		C184.891,192.12,245.215,192.094,305.539,192.097z M375.452,485.197c5.399-6.254,10.338-12.209,15.523-17.94
		c25.254-27.91,50.574-55.76,75.869-83.632c28.094-30.956,56.185-61.915,84.281-92.869c1.525-1.68,3.364-2.77,0.541-5.435
		c-23.625-22.305-45.748-46.106-68.532-69.252c-1.941-1.974-3.795-2.766-6.502-2.753c-17.49,0.084-34.994-0.366-52.468,0.181
		c-7.455,0.233-15.049-1.859-22.926,1c11.628,5.533,21.718,12.592,31.29,20.637c9.158,7.697,17.543,16.16,22.939,26.606
		c5.396,10.445,7.387,22.003,5.687,34.187c-2.611,18.714-10.663,34.37-24.051,47.448c-16.275,15.897-35.907,26.488-56.508,35.513
		c-3.759,1.646-9.939,2.387-10.77,4.928c-1.049,3.211,2.17,7.864,3.671,11.85c4.72,12.528,8.304,25.504,10.196,38.617
		c2.196,15.213-1.347,30.148-7.204,44.403C375.754,480.479,374.512,482.215,375.452,485.197z M197.679,213.997
		c-0.124-0.424-0.247-0.847-0.37-1.27c-20.458,0-40.918,0.088-61.375-0.079c-3.758-0.031-6.477,0.923-9.167,3.654
		c-19.993,20.304-40.151,40.443-60.238,60.652c-2.578,2.593-6.663,5.026-7.152,8.01c-0.586,3.575,4.294,5.734,6.751,8.523
		c26.54,30.118,53.232,60.103,79.716,90.27c2.582,2.94,5.444,4.2,8.685,3.069c10.601-3.699,20.656-8.486,26.828-18.576
		c5.969-9.758,11.402-19.854,17.598-29.462c9.668-14.994,20.705-29.013,31.72-43.04c2.262-2.881,2.529-6.55-0.368-9.418
		c-11.852-11.727-24.894-22.165-38.955-30.924c-7.108-4.427-15.992-6.627-25.087-4.292c-7.14,1.833-12.155,6.577-17.268,11.328
		c-1.467,1.362-2.552,3.391-5.591,3.238c2.986-7.11,7.884-12.479,12.126-17.991C166.726,233.144,182.038,223.277,197.679,213.997z
		 M241.02,491.955c0.397-0.151,0.794-0.303,1.191-0.454c-0.284-1.771-0.484-3.562-0.865-5.312
		c-1.995-9.154-2.441-18.411-1.201-27.661c1.351-10.077,7.63-17.562,14.406-24.431c14.821-15.022,33.723-23.31,52.955-30.794
		c7.839-3.05,8.792-4.632,6.074-12.704c-1.989-5.909-6.482-10.317-8.777-15.979c-2.249-5.549-6.155-10.102-9.654-14.756
		c-7.424-9.874-14.627-19.923-22.776-29.278c-9.465-10.865-18.806-21.819-29.155-31.861c-2.625-2.547-7.558-2.582-9.799-0.071
		c-13.807,15.471-26.082,31.924-31.167,52.514c-2.712,10.981-2.606,21.636,5.475,30.954c2.518,2.903,5.83,4.452,9.707,6.9
		c-14.853,0-28.65,0.009-42.447-0.006c-4.348-0.004-8.631,0.656-12.661,2.145c-4.575,1.689-5.27,5.326-2.093,8.967
		c16.757,19.204,33.472,38.446,50.289,57.599C220.604,469.208,230.848,480.55,241.02,491.955z M410.855,327.476
		c0-2.163,0.241-4.358-0.038-6.485c-2.257-17.165-9.311-32.413-19.707-45.993c-7.539-9.848-16.117-18.725-27.127-25.109
		c-8.198-4.755-16.446-8.087-26.024-9.256c-7.347-0.896-14.646-0.906-20.946,1.808c-10.449,4.501-20.137,10.778-30.104,16.381
		c-2.82,1.585-2.722,4.187-0.867,6.16c6.029,6.417,11.708,13.113,17.433,19.798c9.797,11.44,19.116,23.248,28.276,35.176
		c11.634,15.15,20.062,32.279,29.252,48.924c1.98,3.586,3.022,9.028,5.979,10.388c3.486,1.603,7.766-2.447,11.663-4.124
		C399.561,366.146,409.496,349.673,410.855,327.476z M343.838,471.357c0.914-7.866-0.651-15.689-3.063-23.199
		c-4.16-12.955-9.008-25.673-15.185-37.863c-3.362-6.637-6.066-8.016-13.314-5.521c-6.799,2.34-12.927,5.981-18.971,9.77
		c-16.275,10.203-21.093,26.041-20.021,43.837c0.695,11.548,3.898,22.803,11.059,32.461c5.677,7.659,11.013,15.523,21.428,17.499
		c10.232,1.94,19.363,0.351,27.262-6.846C341.933,493.386,344.792,483.152,343.838,471.357z M257.373,509.702
		c-0.339,1.994,0.813,2.644,1.522,3.459c9.604,11.049,19.175,22.13,28.906,33.066c4.74,5.328,9.069,11.006,14.339,15.901
		c2.809,2.608,3.991,1.821,6.12-0.612c13.813-15.783,27.898-31.33,41.613-47.196c3.476-4.021,8.076-7.384,9.867-14.179
		C326.376,516.401,292.25,518.137,257.373,509.702z M214.943,213.171c2.328,1.303,3.743,2.011,5.074,2.851
		c10.36,6.537,21.895,11.073,31.57,18.804c5.591,4.468,10.714,9.425,15.972,14.245c5.335,4.892,5.605,5.131,11.226,0.853
		c15.581-11.861,32.822-20.637,51.004-27.611c8.416-3.229,17.09-5.783,25.646-8.643c-0.051-0.166-0.102-0.332-0.152-0.498
		C308.886,213.171,262.488,213.171,214.943,213.171z"/>
	<path fill-rule="evenodd" clip-rule="evenodd" fill="#050301" d="M375.452,485.197c-0.94-2.982,0.302-4.719,1.038-6.512
		c5.857-14.255,9.4-29.19,7.204-44.403c-1.893-13.113-5.477-26.089-10.196-38.617c-1.501-3.985-4.72-8.639-3.671-11.85
		c0.83-2.541,7.011-3.281,10.77-4.928c20.601-9.024,40.232-19.615,56.508-35.513c13.388-13.078,21.439-28.734,24.051-47.448
		c1.7-12.184-0.29-23.741-5.687-34.187c-5.396-10.446-13.781-18.909-22.939-26.606c-9.572-8.045-19.662-15.104-31.29-20.637
		c7.877-2.859,15.471-0.767,22.926-1c17.474-0.547,34.978-0.097,52.468-0.181c2.707-0.013,4.561,0.779,6.502,2.753
		c22.784,23.146,44.907,46.947,68.532,69.252c2.823,2.665,0.984,3.755-0.541,5.435c-28.097,30.954-56.188,61.913-84.281,92.869
		c-25.295,27.872-50.615,55.722-75.869,83.632C385.79,472.988,380.852,478.943,375.452,485.197z M393.159,447.746
		c0.821-1.023,1.592-2.093,2.472-3.063c46.326-51.059,92.629-102.139,139.079-153.085c2.805-3.076,2.117-4.726-0.323-7.202
		c-18.472-18.746-36.886-37.549-55.252-56.396c-1.646-1.688-3.314-2.416-5.672-2.413c-10.825,0.012-21.65-0.133-32.476-0.253
		c-1.329-0.015-2.663-0.244-4.058,1.437c5.728,3.423,10.676,7.757,15.013,12.764c5.635,6.506,12.092,12.565,14.871,20.94
		c3.966,11.944,6.769,23.96,5.396,36.965c-1.969,18.65-9.464,34.658-21.553,48.321c-11.84,13.381-26.694,23.251-42.607,31.352
		c-7.45,3.793-15.096,7.211-22.707,10.678c-3.568,1.625-4.714,3.649-2.602,7.384c2.857,5.053,4.354,10.675,5.747,16.277
		C391.402,423.174,394.543,434.888,393.159,447.746z"/>
	<path fill-rule="evenodd" clip-rule="evenodd" fill="#050301" d="M197.679,213.997c-15.641,9.28-30.954,19.146-42.149,33.693
		c-4.242,5.512-9.14,10.881-12.126,17.991c3.039,0.152,4.125-1.876,5.591-3.238c5.113-4.751,10.128-9.495,17.268-11.328
		c9.095-2.335,17.979-0.135,25.087,4.292c14.062,8.759,27.104,19.197,38.955,30.924c2.897,2.868,2.63,6.537,0.368,9.418
		c-11.015,14.027-22.051,28.046-31.72,43.04c-6.195,9.607-11.628,19.704-17.598,29.462c-6.172,10.09-16.227,14.877-26.828,18.576
		c-3.241,1.131-6.103-0.129-8.685-3.069c-26.484-30.167-53.176-60.151-79.716-90.27c-2.458-2.789-7.338-4.948-6.751-8.523
		c0.489-2.983,4.574-5.417,7.152-8.01c20.087-20.209,40.246-40.349,60.238-60.652c2.69-2.731,5.41-3.686,9.167-3.654
		c20.457,0.167,40.917,0.079,61.375,0.079C197.432,213.15,197.556,213.573,197.679,213.997z M164.902,224.228
		c-9.38,0-17.177,0.133-24.966-0.065c-3.077-0.078-5.235,0.831-7.418,3.042c-18.022,18.246-36.196,36.34-53.829,54.972
		c-2.56,2.704-2.425,3.989-0.089,6.646c24.741,28.152,49.412,56.365,73.869,84.764c3.227,3.747,5.643,3.035,8.542,0.498
		c2.186-1.914,4.266-3.994,6.132-6.22c8.299-9.893,14.314-21.303,21.078-32.207c4.271-6.885,8.175-14.007,13.093-20.462
		c5.363-7.039,9.6-14.898,15.9-21.291c1.23-1.247,4.161-3.838,1.205-6.288c-11.369-9.424-23.174-18.264-37.204-23.392
		c-8.905-3.255-17.376-3.075-24.71,4.331c-4.077,4.116-8.75,7.646-13.217,11.367c-1.072,0.894-2.05,2.491-3.842,1.583
		c-4.034-2.043-8.165-4.405-10.254-8.366c-1.477-2.799,1.641-5.479,3.117-7.92C141.175,250.556,150.423,236.154,164.902,224.228z"/>
	<path fill-rule="evenodd" clip-rule="evenodd" fill="#050301" d="M241.02,491.955c-10.172-11.405-20.416-22.747-30.5-34.229
		c-16.817-19.152-33.532-38.395-50.289-57.599c-3.176-3.641-2.481-7.277,2.093-8.967c4.03-1.488,8.313-2.148,12.661-2.145
		c13.797,0.015,27.594,0.006,42.447,0.006c-3.877-2.448-7.189-3.997-9.707-6.9c-8.081-9.318-8.187-19.973-5.475-30.954
		c5.085-20.59,17.36-37.043,31.167-52.514c2.241-2.511,7.174-2.476,9.799,0.071c10.349,10.042,19.69,20.996,29.155,31.861
		c8.149,9.355,15.353,19.404,22.776,29.278c3.499,4.654,7.405,9.207,9.654,14.756c2.295,5.662,6.788,10.07,8.777,15.979
		c2.718,8.072,1.765,9.654-6.074,12.704c-19.231,7.484-38.134,15.771-52.955,30.794c-6.776,6.869-13.055,14.354-14.406,24.431
		c-1.24,9.25-0.794,18.507,1.201,27.661c0.381,1.75,0.582,3.54,0.865,5.312C241.814,491.652,241.417,491.804,241.02,491.955z
		 M175.729,399.989c17.973,20.622,35.22,40.425,52.504,60.196c0.707,0.809,1.485,2.184,2.754,1.674
		c1.236-0.497,0.983-1.967,0.979-3.123c-0.041-11.937,4.924-21.758,12.583-30.577c11.414-13.144,26.502-20.65,41.944-27.565
		c5.787-2.592,11.903-4.448,17.896-6.65c-4.652-5.966-8.088-12.188-12.138-17.973c-15.001-21.433-31.455-41.717-49.277-60.884
		c-3.784-4.069-5.059-4.407-8.57-0.103c-10.206,12.51-18.782,26.004-22.174,42.073c-2.126,10.075,3.734,22.895,14.52,23.111
		c1.532,0.031,3.084,0.995,4.557,1.678c4.654,2.156,6.282,6.695,4.603,13.674c-1.028,4.271-4.461,4.539-8.199,4.516
		C210.753,399.93,193.792,399.989,175.729,399.989z"/>
	<path fill-rule="evenodd" clip-rule="evenodd" fill="#050301" d="M410.855,327.476c-1.359,22.197-11.295,38.67-32.211,47.666
		c-3.897,1.677-8.177,5.727-11.663,4.124c-2.957-1.359-3.999-6.802-5.979-10.388c-9.19-16.645-17.618-33.773-29.252-48.924
		c-9.16-11.928-18.479-23.735-28.276-35.176c-5.725-6.685-11.404-13.381-17.433-19.798c-1.854-1.974-1.953-4.575,0.867-6.16
		c9.968-5.603,19.655-11.88,30.104-16.381c6.3-2.714,13.6-2.704,20.946-1.808c9.578,1.169,17.826,4.501,26.024,9.256
		c11.01,6.385,19.588,15.262,27.127,25.109c10.396,13.58,17.45,28.828,19.707,45.993
		C411.097,323.117,410.855,325.313,410.855,327.476z M299.352,262.041c2.246,4.44,6.456,6.574,9.161,10.06
		c7.546,9.72,15.972,18.688,23.204,28.714c7.667,10.628,15.622,21.042,22.661,32.108c6.115,9.615,11.571,19.606,16.823,29.713
		c0.695,1.339,1.088,3.134,3.544,2.148c18.69-7.505,28.483-25.567,25.587-44.728c-1.433-9.479-5.081-18.227-9.946-26.641
		c-9.072-15.688-20.824-28.496-36.852-37.099c-5.835-3.132-12.158-4.919-18.851-5.332
		C321.58,250.177,310.458,255.507,299.352,262.041z"/>
	<path fill-rule="evenodd" clip-rule="evenodd" fill="#050301" d="M343.838,471.357c0.954,11.795-1.905,22.028-10.807,30.138
		c-7.898,7.196-17.029,8.786-27.262,6.846c-10.415-1.976-15.751-9.84-21.428-17.499c-7.16-9.658-10.364-20.913-11.059-32.461
		c-1.072-17.796,3.746-33.634,20.021-43.837c6.043-3.788,12.172-7.43,18.971-9.77c7.248-2.495,9.952-1.116,13.314,5.521
		c6.177,12.19,11.024,24.908,15.185,37.863C343.187,455.668,344.752,463.491,343.838,471.357z M333.995,469.393
		c-0.268-3.297,0.3-6.64-0.623-9.923c-3.378-12.018-7.095-23.91-12.309-35.291c-4.214-9.2-4.081-8.845-12.923-5.2
		c-11.18,4.609-20.526,11.458-22.965,24.09c-3.647,18.889,2.38,35.18,15.387,48.894c6.464,6.816,16.901,6.616,24.2,0.803
		C332.444,486.646,334.642,478.66,333.995,469.393z"/>
	<path fill-rule="evenodd" clip-rule="evenodd" fill="#050301" d="M257.373,509.702c34.878,8.435,69.003,6.699,102.368-9.561
		c-1.791,6.795-6.392,10.157-9.867,14.179c-13.715,15.866-27.8,31.413-41.613,47.196c-2.129,2.434-3.312,3.221-6.12,0.612
		c-5.271-4.896-9.599-10.573-14.339-15.901c-9.731-10.937-19.301-22.018-28.906-33.066
		C258.186,512.346,257.034,511.696,257.373,509.702z M286.693,527.226c5.495,6.207,10.502,11.857,15.5,17.515
		c0.698,0.79,1.283,1.433,2.307,0.288c5.214-5.833,10.477-11.624,16.06-17.803C308.977,527.226,298.264,527.226,286.693,527.226z"/>
	<path fill-rule="evenodd" clip-rule="evenodd" fill="#050301" d="M214.943,213.171c47.545,0,93.943,0,140.339,0
		c0.051,0.166,0.102,0.332,0.152,0.498c-8.557,2.859-17.23,5.414-25.646,8.643c-18.182,6.975-35.423,15.75-51.004,27.611
		c-5.62,4.278-5.891,4.039-11.226-0.853c-5.258-4.82-10.381-9.777-15.972-14.245c-9.675-7.73-21.209-12.267-31.57-18.804
		C218.686,215.182,217.271,214.474,214.943,213.171z M256.772,225.082c5.968,4.942,11.265,9.388,16.637,13.737
		c1.289,1.044,2.486,2.825,4.616,1.572c8.493-4.997,16.984-9.999,26.002-15.31C288.104,225.082,272.793,225.082,256.772,225.082z"/>
	<path fill-rule="evenodd" clip-rule="evenodd" fill="#FCFC01" d="M393.159,447.746c1.384-12.858-1.757-24.572-4.671-36.295
		c-1.393-5.603-2.89-11.225-5.747-16.277c-2.112-3.734-0.967-5.759,2.602-7.384c7.611-3.467,15.257-6.885,22.707-10.678
		c15.913-8.101,30.768-17.971,42.607-31.352c12.089-13.663,19.584-29.671,21.553-48.321c1.372-13.005-1.431-25.021-5.396-36.965
		c-2.779-8.375-9.236-14.435-14.871-20.94c-4.337-5.007-9.285-9.341-15.013-12.764c1.395-1.681,2.729-1.451,4.058-1.437
		c10.825,0.12,21.65,0.265,32.476,0.253c2.357-0.003,4.026,0.726,5.672,2.413c18.366,18.848,36.78,37.65,55.252,56.396
		c2.44,2.477,3.128,4.126,0.323,7.202c-46.45,50.946-92.753,102.026-139.079,153.085
		C394.751,445.653,393.98,446.723,393.159,447.746z"/>
	<path fill-rule="evenodd" clip-rule="evenodd" fill="#FCFC01" d="M164.902,224.228c-14.479,11.927-23.727,26.328-32.595,40.992
		c-1.476,2.44-4.593,5.121-3.117,7.92c2.089,3.961,6.22,6.323,10.254,8.366c1.792,0.908,2.77-0.689,3.842-1.583
		c4.466-3.721,9.14-7.251,13.217-11.367c7.334-7.406,15.805-7.586,24.71-4.331c14.03,5.128,25.835,13.968,37.204,23.392
		c2.956,2.45,0.025,5.041-1.205,6.288c-6.3,6.393-10.537,14.252-15.9,21.291c-4.918,6.455-8.823,13.577-13.093,20.462
		c-6.764,10.904-12.779,22.314-21.078,32.207c-1.866,2.226-3.946,4.306-6.132,6.22c-2.899,2.537-5.314,3.249-8.542-0.498
		c-24.457-28.398-49.128-56.611-73.869-84.764c-2.336-2.657-2.47-3.942,0.089-6.646c17.632-18.632,35.807-36.726,53.829-54.972
		c2.183-2.211,4.341-3.12,7.418-3.042C147.725,224.36,155.522,224.228,164.902,224.228z"/>
	<path fill-rule="evenodd" clip-rule="evenodd" fill="#FDFD00" d="M175.729,399.989c18.063,0,35.023-0.06,51.983,0.047
		c3.738,0.023,7.171-0.244,8.199-4.516c1.679-6.979,0.051-11.518-4.603-13.674c-1.473-0.683-3.025-1.646-4.557-1.678
		c-10.785-0.217-16.646-13.036-14.52-23.111c3.392-16.069,11.968-29.563,22.174-42.073c3.511-4.305,4.786-3.967,8.57,0.103
		c17.823,19.167,34.276,39.451,49.277,60.884c4.05,5.785,7.486,12.007,12.138,17.973c-5.993,2.202-12.108,4.059-17.896,6.65
		c-15.442,6.915-30.53,14.422-41.944,27.565c-7.66,8.819-12.624,18.641-12.583,30.577c0.004,1.156,0.257,2.626-0.979,3.123
		c-1.27,0.51-2.047-0.865-2.754-1.674C210.95,440.414,193.702,420.611,175.729,399.989z"/>
	<path fill-rule="evenodd" clip-rule="evenodd" fill="#FDFD00" d="M299.352,262.041c11.106-6.534,22.229-11.864,35.332-11.056
		c6.692,0.413,13.016,2.2,18.851,5.332c16.027,8.603,27.779,21.41,36.852,37.099c4.865,8.414,8.514,17.162,9.946,26.641
		c2.896,19.16-6.896,37.223-25.587,44.728c-2.456,0.985-2.849-0.81-3.544-2.148c-5.252-10.106-10.708-20.098-16.823-29.713
		c-7.039-11.066-14.994-21.48-22.661-32.108c-7.232-10.026-15.658-18.994-23.204-28.714
		C305.808,268.615,301.598,266.481,299.352,262.041z"/>
	<path fill-rule="evenodd" clip-rule="evenodd" fill="#FDFD00" d="M333.995,469.393c0.646,9.268-1.551,17.254-9.233,23.372
		c-7.299,5.813-17.735,6.014-24.2-0.803c-13.007-13.714-19.034-30.005-15.387-48.894c2.439-12.632,11.785-19.48,22.965-24.09
		c8.842-3.645,8.709-4,12.923,5.2c5.214,11.381,8.931,23.273,12.309,35.291C334.295,462.753,333.728,466.096,333.995,469.393z"/>
	<path fill-rule="evenodd" clip-rule="evenodd" fill="#FCFC01" d="M286.693,527.226c11.57,0,22.283,0,33.867,0
		c-5.583,6.179-10.846,11.97-16.06,17.803c-1.023,1.145-1.608,0.502-2.307-0.288C297.195,539.083,292.188,533.433,286.693,527.226z"
		/>
	<path fill-rule="evenodd" clip-rule="evenodd" fill="#FCFC01" d="M256.772,225.082c16.021,0,31.331,0,47.255,0
		c-9.018,5.311-17.509,10.313-26.002,15.31c-2.129,1.253-3.327-0.528-4.616-1.572C268.037,234.47,262.74,230.024,256.772,225.082z"
		/>
</g>
</svg>
